<?xml version="1.0" encoding="UTF-8"?>
<!DOCTYPE svg PUBLIC "-//W3C//DTD SVG 1.1//EN" "http://www.w3.org/Graphics/SVG/1.1/DTD/svg11.dtd">
<!-- Creator: CorelDRAW 2020 (64-Bit) -->
<svg xmlns="http://www.w3.org/2000/svg" xml:space="preserve" width="195.825mm" height="60.8012mm" version="1.1" style="shape-rendering:geometricPrecision; text-rendering:geometricPrecision; image-rendering:optimizeQuality; fill-rule:evenodd; clip-rule:evenodd"
viewBox="0 0 16509.66 5126.03"
 xmlns:xlink="http://www.w3.org/1999/xlink"
 xmlns:xodm="http://www.corel.com/coreldraw/odm/2003">
 <defs>
  <style type="text/css">
   <![CDATA[
    .fil2 {fill:#FEFEFE;fill-rule:nonzero}
    .fil0 {fill:#8CADC6;fill-rule:nonzero}
    .fil1 {fill:white;fill-rule:nonzero}
   ]]>
  </style>
 </defs>
 <g id="Capa_x0020_1">
  <metadata id="CorelCorpID_0Corel-Layer"/>
  <path class="fil0" d="M1719.51 490.16c-648.38,170.43 -1100.69,757 -1100.69,1427.55 0,669.63 450.87,1255.47 1098.17,1426.86 639.75,-179.48 1082.14,-763.06 1082.14,-1427.55 0,-663.6 -440.95,-1246.64 -1079.56,-1426.93l-0.06 0.08z"/>
  <g>
   <path class="fil1" d="M1687.94 2205.45c159.37,0.01 288.6,-129.23 288.6,-288.59 0,-159.36 -129.24,-288.59 -288.59,-288.59 -159.36,0 -288.59,129.24 -288.59,288.59 0,159.36 129.24,288.59 288.59,288.59l-0.01 -0.01zm0 0l0 0 0 0z"/>
  </g>
  <path class="fil2" d="M954.49 4162c-59,-60.28 -92.09,-141.36 -92.09,-225.74 0,-84.38 33.09,-165.46 92.11,-225.74l0 -3.05 0 0 147.1 -148.63c294.15,179.91 633.19,275.38 978.18,275.38 0.46,0 1.15,0 1.6,0 1050.85,-13.9 1895.8,-870.12 1895.8,-1921.25 0,-353.98 -98.29,-701.63 -282.9,-1003.3l280.97 -284.02 -608.15 -614.45 -278.93 281.47c-300.05,-191.02 -648.86,-292.67 -1004.75,-292.67 -0.46,0 -1.6,0 -2.06,0 -1051.08,13.23 -1896.51,869.44 -1896.51,1920.78 0,365.14 104.36,723.46 300.41,1031.39l-139.53 140.95c-221.21,223.35 -345.74,525.44 -345.74,839.91 0,653.12 525.53,1185.06 1178.5,1192.93l2333.66 0.07 0 -870.37 -2333.71 0c-0.09,0 -0.32,0 -0.44,0 -84.02,0 -164.6,-33.8 -223.51,-93.67l-0.01 0.01zm1343.73 -3621.97c725.7,103.27 1265.19,724.74 1265.19,1457.85 0,813.09 -659.4,1472.49 -1472.51,1472.49 -813.11,0 -1472.51,-659.4 -1472.51,-1472.49 0,-26.78 0.72,-53.93 2.16,-80.54 0.03,-2.44 0.03,-5.13 0.03,-7.63 0,-805.57 650.75,-1460.07 1456.32,-1464.36l221.32 94.69z"/>
  <g>
   <path class="fil2" d="M12061.23 3716.78c-2.23,0.03 -4.51,0.1 -6.76,0.1 -143.34,0 -259.58,-116.24 -259.58,-259.58 0,-2.88 0.07,-5.89 0.16,-8.74 -0.02,-147.56 119.65,-267.22 267.21,-267.22 147.56,0 267.22,119.67 267.22,267.22 0.02,2.17 0.08,4.5 0.08,6.7 0,144.47 -117.15,261.62 -261.62,261.62 -2.2,0 -4.54,-0.07 -6.71,-0.09l0.01 -0.01zm268.23 -890.23l0 101.8c-92.95,-84.83 -214.39,-131.87 -340.26,-131.87 -2.1,0 -4.32,0.06 -6.35,0.06 -338.99,0 -595.01,280.45 -595.01,651.51 0,371.06 254.49,651 595.01,651 2.03,-0.03 4.25,0.03 6.35,0.03 125.87,0 247.31,-47.04 340.28,-131.86l0 101.8 394.96 -0.03 0 -1242.45 -394.97 0zm-6818.89 866.73c-2.36,0.08 -4.82,0.11 -7.22,0.11 -144.47,0 -261.62,-117.15 -261.62,-261.62 0,-2.23 0.07,-4.5 0.09,-6.71 0,-147.56 119.67,-267.22 267.22,-267.22 147.56,0 267.22,119.67 267.22,267.22 0.08,2.87 0.14,5.84 0.14,8.73 0,143.34 -116.24,259.58 -259.58,259.58 -2.06,0 -4.22,-0.03 -6.25,-0.07l-0.01 -0.02zm77.88 -919.74c-1.9,0.03 -4,-0.03 -5.98,-0.03 -126.01,0 -247.5,47.07 -340.65,131.87l0 -615.39 -394.97 0 0 1756.53 394.97 0 0 -101.8c93.14,84.8 214.64,131.87 340.65,131.87 1.97,0 4.08,-0.06 5.99,-0.06 338.99,0 595.01,-280.45 595.01,-651 0,-370.55 -254.49,-651.51 -595.01,-651.51l-0.02 -0.48zm5162.17 1343.96c5.91,0.14 11.97,0.23 17.95,0.23 225.87,0 436.22,-115.27 557.71,-305.6l-344.08 -209.71c-47.92,83.25 -136.77,134.61 -232.88,134.61 -148.4,0 -268.75,-120.35 -268.75,-268.75 0,-148.4 120.35,-268.75 268.75,-268.75 96.1,0 184.96,51.35 232.88,134.62l344.07 -213.26c-121.5,-190.37 -331.85,-305.63 -557.71,-305.63 -5.98,0 -12.04,0.08 -17.93,0.24 -385.3,0 -672.89,280.45 -672.89,651 0,370.55 287.58,651 672.89,651l-0.02 -0.02zm-2322.54 -443.95c-0.65,0 -1.37,0 -2.02,0 -148.12,0 -268.23,-120.11 -268.23,-268.23 0,-148.12 120.11,-268.23 268.23,-268.23 148.12,0 268.23,120.11 268.23,268.23 0,0.33 0,0.69 0,1.01 0.03,1.8 0.07,3.79 0.07,5.64 0,144.47 -117.15,261.62 -261.62,261.62 -1.53,0 -3.13,-0.03 -4.63,-0.03l-0.03 -0.01zm0 382.77c382.76,1.01 673.39,-280.97 673.39,-649.98 0,-369.02 -290.64,-648.96 -673.39,-648.96 -382.76,0 -673.39,280.45 -673.39,651 0,370.55 287.58,651 673.39,651l0 -3.06zm-1446.37 -382.77c-0.65,0 -1.37,0 -2.02,0 -148.12,0 -268.23,-120.11 -268.23,-268.23 0,-148.12 120.11,-268.23 268.23,-268.23 148.12,0 268.23,120.11 268.23,268.23 0,0.33 0,0.69 0,1.01 0.03,1.8 0.07,3.79 0.07,5.64 0,144.47 -117.15,261.62 -261.62,261.62 -1.53,0 -3.13,-0.03 -4.63,-0.03l-0.03 -0.01zm0 382.77c382.76,1.01 673.39,-280.97 673.39,-649.98 0,-369.02 -290.64,-648.96 -673.39,-648.96 -382.76,0 -673.39,280.45 -673.39,651 0,370.55 287.58,651 673.39,651l0 -3.06zm7530.59 -1264.92c-5.21,-0.12 -10.61,-0.24 -15.9,-0.24 -149.82,0 -292.06,66.04 -388.75,180.44 -80.65,-113.33 -211.23,-180.68 -350.38,-180.68 -6.88,0 -13.86,0.16 -20.69,0.47 -2.93,-0.01 -6,-0.07 -9,-0.07 -123.21,0 -241.68,48.06 -329.98,133.94l0.03 -106.88 -394.97 0 0 1245.49 394.97 0 0 -691.71c-0.08,-2.28 -0.13,-4.61 -0.13,-6.9 0,-106.8 86.62,-193.42 193.42,-193.42 3.42,0 6.9,0.12 10.29,0.29 2.91,-0.14 5.91,-0.23 8.83,-0.23 99.21,0 179.68,80.46 179.68,179.68 0,5.15 -0.22,10.35 -0.66,15.49l-0.02 696.81 394.97 0 0 -691.71c-0.14,-2.98 -0.21,-6.04 -0.21,-9.06 0,-105.68 85.7,-191.38 191.38,-191.38 4.14,0 8.32,0.14 12.43,0.4 2.76,-0.11 5.54,-0.19 8.3,-0.19 99.21,0 179.68,80.46 179.68,179.68 0,5.15 -0.22,10.33 -0.66,15.46l-0.02 696.81 395.49 0 0 -814.38c0,-278.42 -178.14,-458.09 -458.09,-458.09l-0.01 0zm-4531.42 378.66l0 -360.87 -305.4 0 0 -299.8 -394.97 0 0 1119.78c0,263.66 136.41,453.51 458.09,453.51 5.1,0.13 10.44,0.24 15.6,0.24 79.45,0 157.89,-19.37 228.23,-56.25l-0.02 -368.49c-48.8,25.79 -103.08,39.97 -158.29,41.24 -101.8,0 -146.59,-50.9 -146.59,-136.41l-0.01 -392.94 303.36 0zm5936.12 -379.83c-149.37,0 -277.05,55.42 -371.01,151.78l0 -122.87 -351.74 0 0 1686.42 351.74 0 0 -580.61c93.95,96.37 221.64,151.78 371.01,151.78 339.69,0 592.66,-277.05 592.66,-643.25 0,-366.2 -252.97,-643.25 -592.66,-643.25zm-69.87 946.8c-173.46,0 -301.14,-130.1 -301.14,-303.55 0,-173.46 127.68,-303.56 301.14,-303.56 173.46,0 301.15,130.1 301.15,303.56 0,173.46 -127.68,303.55 -301.15,303.55zm-8144.97 -1950.98l0 0 0 0zm0 0c382.76,0 673.39,-280.45 673.39,-651 0,-370.55 -290.64,-651.5 -673.39,-651.5 -382.76,0 -672.89,279.94 -672.89,651.51 0,371.56 287.58,651 672.89,651l0 -0.01zm0 -382.76c-2.16,0.03 -4.49,0.1 -6.69,0.1 -144.47,0 -261.62,-117.15 -261.62,-261.62 0,-2.2 0.07,-4.54 0.09,-6.71 -0.16,-3.85 -0.26,-7.77 -0.26,-11.65 0,-147.56 119.67,-267.22 267.22,-267.22 147.56,0 267.22,119.67 267.22,267.22 0,3.88 -0.1,7.8 -0.26,11.64 0.05,2.51 0.12,5.15 0.12,7.7 0,143.91 -116.7,260.6 -260.6,260.6 -1.72,0 -3.53,-0.03 -5.22,-0.07l0.01 0.01zm1564.13 -919.74c-1.9,0.03 -4,-0.03 -5.98,-0.03 -126.01,0 -247.5,47.07 -340.65,131.87l0 -615.39 -394.97 0 0 1756.53 394.97 0 0 -101.8c93.14,84.8 214.64,131.87 340.65,131.87 1.97,0 4.08,-0.06 5.99,-0.06 338.99,0 595.01,-280.45 595.01,-651 0,-370.55 -254.49,-651.51 -595.01,-651.51l-0.02 -0.48zm-77.88 919.74c-2.36,0.08 -4.82,0.11 -7.22,0.11 -144.47,0 -261.62,-117.15 -261.62,-261.62 0,-2.23 0.07,-4.5 0.09,-6.71 0,-147.56 119.67,-267.22 267.22,-267.22 147.56,0 267.22,119.67 267.22,267.22 0.08,2.87 0.14,5.84 0.14,8.73 0,143.34 -116.24,259.58 -259.58,259.58 -2.06,0 -4.22,-0.03 -6.25,-0.07l-0.01 -0.02zm1734.12 -890.23l0 101.8c-92.95,-84.83 -214.39,-131.87 -340.26,-131.87 -2.1,0 -4.32,0.06 -6.35,0.06 -338.99,0 -595.01,280.45 -595.01,651.51 0,371.06 254.49,651 595.01,651 2.03,-0.03 4.25,0.03 6.35,0.03 125.87,0 247.31,-47.04 340.28,-131.86l0 101.8 394.96 -0.03 0 -1242.45 -394.97 0zm-268.23 890.23c-2.23,0.03 -4.51,0.1 -6.76,0.1 -143.34,0 -259.58,-116.24 -259.58,-259.58 0,-2.88 0.07,-5.89 0.16,-8.74 -0.02,-147.56 119.65,-267.22 267.21,-267.22 147.56,0 267.22,119.67 267.22,267.22 0.02,2.17 0.08,4.5 0.08,6.7 0,144.47 -117.15,261.62 -261.62,261.62 -2.2,0 -4.54,-0.07 -6.71,-0.09l0.01 -0.01zm-3956.89 -1403.28l-398.03 0 0 1337.12c0,283.51 165.93,449.44 444.86,449.44 0.67,0.01 1.54,0.01 2.21,0.01 85.78,0 171.09,-14.16 252.28,-41.7l-43.77 -332.37c-41.12,11.73 -83.94,17.77 -126.75,17.77 -97.73,0 -132.34,-46.82 -132.34,-136.92l1.53 -1293.35zm5204.42 0l-398.54 0 0 1337.12c0,283.51 165.93,449.44 444.35,449.44 0.46,0.01 1.23,0.01 1.71,0.01 85.93,0 171.47,-14.21 252.79,-41.77l-44.28 -332.37c-41.12,11.79 -83.73,17.83 -126.51,17.83 -0.06,0 -0.17,0 -0.23,0 -97.73,0 -131.82,-46.82 -131.82,-136.92l2.54 -1293.34zm-6197.97 1730.57l0 0 0 0zm0 0l-365.45 0c-58.54,0 -97.73,-32.06 -97.73,-78.38 2.14,-36.29 23.51,-68.71 56,-85.01 52.02,10.65 105.57,16.53 158.83,16.83 336.44,0 595.01,-236.68 595.01,-551.24 -0.02,-0.5 -0.02,-1.02 -0.02,-1.48 0,-107.31 -32.26,-212.19 -92.61,-300.88 18.46,-37.56 56.73,-61.38 98.61,-61.38 2.75,0 5.51,0.11 8.25,0.31l88.04 -0.02 0 -363.93 -107.4 0c-173.06,0 -302.34,87.55 -341.53,223.96 -79,-30.47 -163.16,-46.31 -247.91,-46.31 -0.08,0 -0.42,0 -0.51,0 -341.53,0 -597.55,236.68 -597.55,551.24 0.06,2.01 -0.01,4.37 -0.01,6.45 0,144.97 59.06,283.88 163.42,384.46 -109.67,72.91 -175.62,195.93 -175.62,327.64 0,1.39 0,2.83 0,4.22 0,214.29 165.93,356.29 414.32,356.29l368.53 -0.02c4.93,-0.49 9.94,-0.74 14.9,-0.74 72.06,0 133.68,51.92 145.95,122.9l407.19 -112.48c-50.9,-246.35 -236.68,-389.88 -492.7,-389.88l0 -2.55zm-248.39 -873.94c93.92,6.16 166.96,84.16 166.96,178.28 0,98.65 -80.01,178.66 -178.66,178.66 -98.66,0 -178.66,-80.01 -178.66,-178.66 0,-0.03 0,-0.11 0,-0.13 0.07,-98.61 80.05,-178.52 178.66,-178.52 3.9,0 7.83,0.15 11.71,0.4l-0.02 -0.02zm8715.43 899.9l508.99 0 -605.69 -1694.94 -549.71 0 -605.69 1694.94 500.84 0 75.84 -233.63 598.06 0 77.36 233.63zm-537.49 -665.76l163.89 -508.99 161.35 508.99 -325.24 0zm1247.03 665.76l466.23 0 0 -1694.94 -466.23 0 0 1694.94zm-2819.22 1960.26c-2.23,0.03 -4.51,0.1 -6.76,0.1 -143.34,0 -259.58,-116.24 -259.58,-259.58 0,-2.88 0.07,-5.89 0.16,-8.74 -0.02,-147.56 119.65,-267.22 267.21,-267.22 147.56,0 267.22,119.67 267.22,267.22 0.02,2.17 0.08,4.5 0.08,6.7 0,144.47 -117.15,261.62 -261.62,261.62 -2.2,0 -4.54,-0.07 -6.71,-0.09l0.01 -0.01zm268.23 -890.23l0 101.8c-92.95,-84.83 -214.39,-131.87 -340.26,-131.87 -2.1,0 -4.32,0.06 -6.35,0.06 -338.99,0 -595.01,280.45 -595.01,651.51 0,371.06 254.49,651 595.01,651 2.03,-0.03 4.25,0.03 6.35,0.03 125.87,0 247.31,-47.04 340.28,-131.86l0 101.8 394.96 -0.03 0 -1242.45 -394.97 0zm-6818.89 866.73c-2.36,0.08 -4.82,0.11 -7.22,0.11 -144.47,0 -261.62,-117.15 -261.62,-261.62 0,-2.23 0.07,-4.5 0.09,-6.71 0,-147.56 119.67,-267.22 267.22,-267.22 147.56,0 267.22,119.67 267.22,267.22 0.08,2.87 0.14,5.84 0.14,8.73 0,143.34 -116.24,259.58 -259.58,259.58 -2.06,0 -4.22,-0.03 -6.25,-0.07l-0.01 -0.02zm77.88 -919.74c-1.9,0.03 -4,-0.03 -5.98,-0.03 -126.01,0 -247.5,47.07 -340.65,131.87l0 -615.39 -394.97 0 0 1756.53 394.97 0 0 -101.8c93.14,84.8 214.64,131.87 340.65,131.87 1.97,0 4.08,-0.06 5.99,-0.06 338.99,0 595.01,-280.45 595.01,-651 0,-370.55 -254.49,-651.51 -595.01,-651.51l-0.02 -0.48zm5162.17 1343.96c5.91,0.14 11.97,0.23 17.95,0.23 225.87,0 436.22,-115.27 557.71,-305.6l-344.08 -209.71c-47.92,83.25 -136.77,134.61 -232.88,134.61 -148.4,0 -268.75,-120.35 -268.75,-268.75 0,-148.4 120.35,-268.75 268.75,-268.75 96.1,0 184.96,51.35 232.88,134.62l344.07 -213.26c-121.5,-190.37 -331.85,-305.63 -557.71,-305.63 -5.98,0 -12.04,0.08 -17.93,0.24 -385.3,0 -672.89,280.45 -672.89,651 0,370.55 287.58,651 672.89,651l-0.02 -0.02zm-2322.54 -443.95c-0.65,0 -1.37,0 -2.02,0 -148.12,0 -268.23,-120.11 -268.23,-268.23 0,-148.12 120.11,-268.23 268.23,-268.23 148.12,0 268.23,120.11 268.23,268.23 0,0.33 0,0.69 0,1.01 0.03,1.8 0.07,3.79 0.07,5.64 0,144.47 -117.15,261.62 -261.62,261.62 -1.53,0 -3.13,-0.03 -4.63,-0.03l-0.03 -0.01zm0 382.77c382.76,1.01 673.39,-280.97 673.39,-649.98 0,-369.02 -290.64,-648.96 -673.39,-648.96 -382.76,0 -673.39,280.45 -673.39,651 0,370.55 287.58,651 673.39,651l0 -3.06zm-1446.37 -382.77c-0.65,0 -1.37,0 -2.02,0 -148.12,0 -268.23,-120.11 -268.23,-268.23 0,-148.12 120.11,-268.23 268.23,-268.23 148.12,0 268.23,120.11 268.23,268.23 0,0.33 0,0.69 0,1.01 0.03,1.8 0.07,3.79 0.07,5.64 0,144.47 -117.15,261.62 -261.62,261.62 -1.53,0 -3.13,-0.03 -4.63,-0.03l-0.03 -0.01zm0 382.77c382.76,1.01 673.39,-280.97 673.39,-649.98 0,-369.02 -290.64,-648.96 -673.39,-648.96 -382.76,0 -673.39,280.45 -673.39,651 0,370.55 287.58,651 673.39,651l0 -3.06zm7530.59 -1264.92c-5.21,-0.12 -10.61,-0.24 -15.9,-0.24 -149.82,0 -292.06,66.04 -388.75,180.44 -80.65,-113.33 -211.23,-180.68 -350.38,-180.68 -6.88,0 -13.86,0.16 -20.69,0.47 -2.93,-0.01 -6,-0.07 -9,-0.07 -123.21,0 -241.68,48.06 -329.98,133.94l0.03 -106.88 -394.97 0 0 1245.49 394.97 0 0 -691.71c-0.08,-2.28 -0.13,-4.61 -0.13,-6.9 0,-106.8 86.62,-193.42 193.42,-193.42 3.42,0 6.9,0.12 10.29,0.29 2.91,-0.14 5.91,-0.23 8.83,-0.23 99.21,0 179.68,80.46 179.68,179.68 0,5.15 -0.22,10.35 -0.66,15.49l-0.02 696.81 394.97 0 0 -691.71c-0.14,-2.98 -0.21,-6.04 -0.21,-9.06 0,-105.68 85.7,-191.38 191.38,-191.38 4.14,0 8.32,0.14 12.43,0.4 2.76,-0.11 5.54,-0.19 8.3,-0.19 99.21,0 179.68,80.46 179.68,179.68 0,5.15 -0.22,10.33 -0.66,15.46l-0.02 696.81 395.49 0 0 -814.38c0,-278.42 -178.14,-458.09 -458.09,-458.09l-0.01 0zm-4531.42 378.66l0 -360.87 -305.4 0 0 -299.8 -394.97 0 0 1119.78c0,263.66 136.41,453.51 458.09,453.51 5.1,0.13 10.44,0.24 15.6,0.24 79.45,0 157.89,-19.37 228.23,-56.25l-0.02 -368.49c-48.8,25.79 -103.08,39.97 -158.29,41.24 -101.8,0 -146.59,-50.9 -146.59,-136.41l-0.01 -392.94 303.36 0zm5936.12 -379.83c-149.37,0 -277.05,55.42 -371.01,151.78l0 -122.87 -351.74 0 0 1686.42 351.74 0 0 -580.61c93.95,96.37 221.64,151.78 371.01,151.78 339.69,0 592.66,-277.05 592.66,-643.25 0,-366.2 -252.97,-643.25 -592.66,-643.25zm-69.87 946.8c-173.46,0 -301.14,-130.1 -301.14,-303.55 0,-173.46 127.68,-303.56 301.14,-303.56 173.46,0 301.15,130.1 301.15,303.56 0,173.46 -127.68,303.55 -301.15,303.55zm-8144.97 -1950.98l0 0 0 0zm0 0c382.76,0 673.39,-280.45 673.39,-651 0,-370.55 -290.64,-651.5 -673.39,-651.5 -382.76,0 -672.89,279.94 -672.89,651.51 0,371.56 287.58,651 672.89,651l0 -0.01zm0 -382.76c-2.16,0.03 -4.49,0.1 -6.69,0.1 -144.47,0 -261.62,-117.15 -261.62,-261.62 0,-2.2 0.07,-4.54 0.09,-6.71 -0.16,-3.85 -0.26,-7.77 -0.26,-11.65 0,-147.56 119.67,-267.22 267.22,-267.22 147.56,0 267.22,119.67 267.22,267.22 0,3.88 -0.1,7.8 -0.26,11.64 0.05,2.51 0.12,5.15 0.12,7.7 0,143.91 -116.7,260.6 -260.6,260.6 -1.72,0 -3.53,-0.03 -5.22,-0.07l0.01 0.01zm1564.13 -919.74c-1.9,0.03 -4,-0.03 -5.98,-0.03 -126.01,0 -247.5,47.07 -340.65,131.87l0 -615.39 -394.97 0 0 1756.53 394.97 0 0 -101.8c93.14,84.8 214.64,131.87 340.65,131.87 1.97,0 4.08,-0.06 5.99,-0.06 338.99,0 595.01,-280.45 595.01,-651 0,-370.55 -254.49,-651.51 -595.01,-651.51l-0.02 -0.48zm-77.88 919.74c-2.36,0.08 -4.82,0.11 -7.22,0.11 -144.47,0 -261.62,-117.15 -261.62,-261.62 0,-2.23 0.07,-4.5 0.09,-6.71 0,-147.56 119.67,-267.22 267.22,-267.22 147.56,0 267.22,119.67 267.22,267.22 0.08,2.87 0.14,5.84 0.14,8.73 0,143.34 -116.24,259.58 -259.58,259.58 -2.06,0 -4.22,-0.03 -6.25,-0.07l-0.01 -0.02zm1734.12 -890.23l0 101.8c-92.95,-84.83 -214.39,-131.87 -340.26,-131.87 -2.1,0 -4.32,0.06 -6.35,0.06 -338.99,0 -595.01,280.45 -595.01,651.51 0,371.06 254.49,651 595.01,651 2.03,-0.03 4.25,0.03 6.35,0.03 125.87,0 247.31,-47.04 340.28,-131.86l0 101.8 394.96 -0.03 0 -1242.45 -394.97 0zm-268.23 890.23c-2.23,0.03 -4.51,0.1 -6.76,0.1 -143.34,0 -259.58,-116.24 -259.58,-259.58 0,-2.88 0.07,-5.89 0.16,-8.74 -0.02,-147.56 119.65,-267.22 267.21,-267.22 147.56,0 267.22,119.67 267.22,267.22 0.02,2.17 0.08,4.5 0.08,6.7 0,144.47 -117.15,261.62 -261.62,261.62 -2.2,0 -4.54,-0.07 -6.71,-0.09l0.01 -0.01zm-3956.89 -1403.28l-398.03 0 0 1337.12c0,283.51 165.93,449.44 444.86,449.44 0.67,0.01 1.54,0.01 2.21,0.01 85.78,0 171.09,-14.16 252.28,-41.7l-43.77 -332.37c-41.12,11.73 -83.94,17.77 -126.75,17.77 -97.73,0 -132.34,-46.82 -132.34,-136.92l1.53 -1293.35zm5204.42 0l-398.54 0 0 1337.12c0,283.51 165.93,449.44 444.35,449.44 0.46,0.01 1.23,0.01 1.71,0.01 85.93,0 171.47,-14.21 252.79,-41.77l-44.28 -332.37c-41.12,11.79 -83.73,17.83 -126.51,17.83 -0.06,0 -0.17,0 -0.23,0 -97.73,0 -131.82,-46.82 -131.82,-136.92l2.54 -1293.34zm-6197.97 1730.57l0 0 0 0zm0 0l-365.45 0c-58.54,0 -97.73,-32.06 -97.73,-78.38 2.14,-36.29 23.51,-68.71 56,-85.01 52.02,10.65 105.57,16.53 158.83,16.83 336.44,0 595.01,-236.68 595.01,-551.24 -0.02,-0.5 -0.02,-1.02 -0.02,-1.48 0,-107.31 -32.26,-212.19 -92.61,-300.88 18.46,-37.56 56.73,-61.38 98.61,-61.38 2.75,0 5.51,0.11 8.25,0.31l88.04 -0.02 0 -363.93 -107.4 0c-173.06,0 -302.34,87.55 -341.53,223.96 -79,-30.47 -163.16,-46.31 -247.91,-46.31 -0.08,0 -0.42,0 -0.51,0 -341.53,0 -597.55,236.68 -597.55,551.24 0.06,2.01 -0.01,4.37 -0.01,6.45 0,144.97 59.06,283.88 163.42,384.46 -109.67,72.91 -175.62,195.93 -175.62,327.64 0,1.39 0,2.83 0,4.22 0,214.29 165.93,356.29 414.32,356.29l368.53 -0.02c4.93,-0.49 9.94,-0.74 14.9,-0.74 72.06,0 133.68,51.92 145.95,122.9l407.19 -112.48c-50.9,-246.35 -236.68,-389.88 -492.7,-389.88l0 -2.55zm-248.39 -873.94c93.92,6.16 166.96,84.16 166.96,178.28 0,98.65 -80.01,178.66 -178.66,178.66 -98.66,0 -178.66,-80.01 -178.66,-178.66 0,-0.03 0,-0.11 0,-0.13 0.07,-98.61 80.05,-178.52 178.66,-178.52 3.9,0 7.83,0.15 11.71,0.4l-0.02 -0.02zm8715.43 899.9l508.99 0 -605.69 -1694.94 -549.71 0 -605.69 1694.94 500.84 0 75.84 -233.63 598.06 0 77.36 233.63zm-537.49 -665.76l163.89 -508.99 161.35 508.99 -325.24 0zm1247.03 665.76l466.23 0 0 -1694.94 -466.23 0 0 1694.94z"/>
  </g>
 </g>
</svg>
