<?xml version="1.0" encoding="UTF-8"?>
<!DOCTYPE svg PUBLIC "-//W3C//DTD SVG 1.1//EN" "http://www.w3.org/Graphics/SVG/1.1/DTD/svg11.dtd">
<!-- Creator: CorelDRAW 2020 (64-Bit) -->
<svg xmlns="http://www.w3.org/2000/svg" xml:space="preserve" width="195.822mm" height="60.8012mm" version="1.1" style="shape-rendering:geometricPrecision; text-rendering:geometricPrecision; image-rendering:optimizeQuality; fill-rule:evenodd; clip-rule:evenodd"
viewBox="0 0 16401.44 5092.53"
 xmlns:xlink="http://www.w3.org/1999/xlink"
 xmlns:xodm="http://www.corel.com/coreldraw/odm/2003">
 <defs>
  <style type="text/css">
   <![CDATA[
    .fil3 {fill:#FEFEFE;fill-rule:nonzero}
    .fil0 {fill:#8CADC6;fill-rule:nonzero}
    .fil2 {fill:#D5522B;fill-rule:nonzero}
    .fil1 {fill:white;fill-rule:nonzero}
   ]]>
  </style>
 </defs>
 <g id="Capa_x0020_1">
  <metadata id="CorelCorpID_0Corel-Layer"/>
  <path class="fil0" d="M1708.27 486.95c-644.14,169.31 -1093.5,752.05 -1093.5,1418.22 0,665.25 447.92,1247.27 1090.99,1417.53 635.56,-178.3 1075.07,-758.08 1075.07,-1418.22 0,-659.26 -438.07,-1238.49 -1072.51,-1417.6l-0.06 0.08z"/>
  <g>
   <path class="fil1" d="M1676.91 2191.03c158.33,0.01 286.72,-128.38 286.72,-286.7 0,-158.32 -128.39,-286.71 -286.71,-286.71 -158.32,0 -286.71,128.39 -286.71,286.71 0,158.32 128.39,286.71 286.71,286.71l-0.01 -0.01zm0 0l0 0 0 0z"/>
  </g>
  <path class="fil2" d="M948.25 4134.8c-58.61,-59.89 -91.49,-140.44 -91.49,-224.27 0,-83.83 32.87,-164.38 91.5,-224.27l0 -3.03 0 0 146.14 -147.66c292.23,178.74 629.05,273.58 971.78,273.58 0.45,0 1.14,0 1.59,0 1043.98,-13.81 1883.41,-864.43 1883.41,-1908.7 0,-351.67 -97.64,-697.04 -281.06,-996.74l279.13 -282.16 -604.17 -610.43 -277.11 279.63c-298.09,-189.77 -644.62,-290.75 -998.18,-290.75 -0.45,0 -1.59,0 -2.04,0 -1044.21,13.14 -1884.11,863.76 -1884.11,1908.23 0,362.75 103.67,718.74 298.45,1024.65l-138.62 140.03c-219.76,221.89 -343.48,522.01 -343.48,834.42 0,648.85 522.09,1177.31 1170.8,1185.13l2318.41 0.07 0 -864.68 -2318.46 0c-0.09,0 -0.32,0 -0.44,0 -83.47,0 -163.53,-33.58 -222.05,-93.05l-0.01 0.01zm1334.94 -3598.29c720.96,102.59 1256.92,720 1256.92,1448.32 0,807.78 -655.09,1462.87 -1462.88,1462.87 -807.79,0 -1462.88,-655.09 -1462.88,-1462.87 0,-26.61 0.71,-53.58 2.14,-80.01 0.03,-2.43 0.03,-5.09 0.03,-7.58 0,-800.31 646.5,-1450.53 1446.8,-1454.79l219.87 94.07z"/>
  <g>
   <path class="fil3" d="M14782.88 1745.91l463.18 0 0 -1683.86 -463.18 0 0 1683.86zm-1238.87 -661.41l162.82 -505.67 160.29 505.67 -323.12 0zm533.98 661.41l505.67 0 -601.74 -1683.86 -546.12 0 -601.74 1683.86 497.57 0 75.35 -232.1 594.16 0 76.86 232.1zm-8658.46 -894.01c93.31,6.12 165.87,83.61 165.87,177.11 0,98 -79.49,177.49 -177.49,177.49 -98.01,0 -177.49,-79.49 -177.49,-177.49 0,-0.03 0,-0.11 0,-0.13 0.07,-97.96 79.53,-177.36 177.49,-177.36 3.88,0 7.78,0.15 11.63,0.39l-0.02 -0.02zm246.76 868.23l-363.06 0c-58.15,0 -97.09,-31.85 -97.09,-77.87 2.13,-36.05 23.35,-68.26 55.63,-84.45 51.68,10.58 104.88,16.42 157.79,16.72 334.24,0 591.12,-235.13 591.12,-547.64 -0.02,-0.49 -0.02,-1.01 -0.02,-1.47 0,-106.61 -32.05,-210.81 -92.01,-298.91 18.33,-37.31 56.36,-60.98 97.96,-60.98 2.73,0 5.48,0.11 8.2,0.31l87.47 -0.02 0 -361.55 -106.7 0c-171.93,0 -300.36,86.97 -339.3,222.49 -78.48,-30.27 -162.09,-46.01 -246.29,-46.01 -0.08,0 -0.42,0 -0.5,0 -339.3,0 -593.64,235.13 -593.64,547.64 0.06,2 -0.01,4.34 -0.01,6.41 0,144.02 58.67,282.03 162.35,381.95 -108.95,72.43 -174.47,194.65 -174.47,325.5 0,1.38 0,2.81 0,4.2 0,212.89 164.84,353.97 411.61,353.97l366.12 -0.02c4.9,-0.49 9.87,-0.74 14.8,-0.74 71.59,0 132.81,51.58 144.99,122.1l404.53 -111.75c-50.56,-244.74 -235.13,-387.33 -489.48,-387.33l0 -2.54zm0 0l0 0 0 0zm6157.45 -1719.25l-395.94 0 0 1328.38c0,281.66 164.84,446.5 441.44,446.5 0.46,0.01 1.22,0.01 1.7,0.01 85.37,0 170.34,-14.11 251.14,-41.49l-43.99 -330.2c-40.85,11.72 -83.18,17.71 -125.69,17.71 -0.06,0 -0.17,0 -0.23,0 -97.09,0 -130.96,-46.52 -130.96,-136.02l2.52 -1284.89zm-5170.4 0l-395.43 0 0 1328.38c0,281.66 164.84,446.5 441.95,446.5 0.67,0.01 1.53,0.01 2.19,0.01 85.22,0 169.97,-14.06 250.63,-41.43l-43.49 -330.2c-40.85,11.65 -83.39,17.66 -125.92,17.66 -97.09,0 -131.47,-46.52 -131.47,-136.02l1.52 -1284.9zm3931.03 1394.11c-2.21,0.03 -4.48,0.1 -6.72,0.1 -142.4,0 -257.89,-115.48 -257.89,-257.89 0,-2.86 0.07,-5.85 0.16,-8.69 -0.02,-146.59 118.87,-265.48 265.46,-265.48 146.59,0 265.48,118.88 265.48,265.48 0.02,2.15 0.08,4.47 0.08,6.66 0,143.53 -116.39,259.91 -259.91,259.91 -2.19,0 -4.51,-0.07 -6.67,-0.09l0.01 -0.01zm266.48 -884.41l0 101.14c-92.34,-84.28 -212.99,-131 -338.03,-131 -2.09,0 -4.29,0.06 -6.31,0.06 -336.77,0 -591.12,278.62 -591.12,647.25 0,368.63 252.83,646.75 591.12,646.75 2.02,-0.03 4.22,0.03 6.31,0.03 125.05,0 245.69,-46.73 338.05,-131l0 101.14 392.38 -0.03 0 -1234.33 -392.39 0zm-1722.79 884.41c-2.35,0.08 -4.79,0.11 -7.17,0.11 -143.53,0 -259.91,-116.39 -259.91,-259.91 0,-2.22 0.07,-4.47 0.09,-6.67 0,-146.59 118.88,-265.48 265.48,-265.48 146.59,0 265.48,118.88 265.48,265.48 0.08,2.85 0.14,5.8 0.14,8.67 0,142.4 -115.48,257.89 -257.89,257.89 -2.04,0 -4.19,-0.03 -6.21,-0.07l-0.01 -0.02zm77.37 -913.73c-1.88,0.03 -3.98,-0.03 -5.94,-0.03 -125.18,0 -245.89,46.76 -338.42,131.01l0 -611.37 -392.39 0 0 1745.04 392.39 0 0 -101.14c92.53,84.24 213.24,131 338.42,131 1.96,0 4.05,-0.06 5.96,-0.06 336.77,0 591.12,-278.62 591.12,-646.75 0,-368.13 -252.83,-647.25 -591.12,-647.25l-0.02 -0.48zm-1553.9 913.73c-2.14,0.03 -4.46,0.1 -6.65,0.1 -143.53,0 -259.91,-116.39 -259.91,-259.91 0,-2.19 0.07,-4.51 0.09,-6.67 -0.16,-3.83 -0.26,-7.72 -0.26,-11.58 0,-146.59 118.88,-265.48 265.48,-265.48 146.59,0 265.48,118.88 265.48,265.48 0,3.85 -0.1,7.75 -0.26,11.57 0.05,2.5 0.12,5.12 0.12,7.65 0,142.96 -115.94,258.9 -258.9,258.9 -1.71,0 -3.51,-0.03 -5.18,-0.07l0.01 0.01zm0 380.26c380.26,0 668.99,-278.62 668.99,-646.75 0,-368.13 -288.74,-647.24 -668.99,-647.24 -380.26,0 -668.49,278.12 -668.49,647.25 0,369.13 285.7,646.75 668.49,646.75l0 -0.01zm0 0l0 0 0 0zm8091.73 1938.23c-172.32,0 -299.17,-129.25 -299.17,-301.57 0,-172.33 126.85,-301.58 299.17,-301.58 172.33,0 299.18,129.25 299.18,301.58 0,172.32 -126.85,301.57 -299.18,301.57zm69.41 -940.62c-148.39,0 -275.24,55.05 -368.58,150.79l0 -122.07 -349.44 0 0 1675.4 349.44 0 0 -576.82c93.34,95.74 220.19,150.79 368.58,150.79 337.47,0 588.79,-275.24 588.79,-639.04 0,-363.81 -251.31,-639.05 -588.79,-639.05zm-5897.32 377.35l0 -358.51 -303.4 0 0 -297.84 -392.39 0 0 1112.46c0,261.93 135.52,450.55 455.09,450.55 5.07,0.13 10.37,0.24 15.5,0.24 78.93,0 156.86,-19.24 226.74,-55.88l-0.02 -366.09c-48.48,25.62 -102.41,39.71 -157.25,40.97 -101.14,0 -145.63,-50.56 -145.63,-135.52l-0.01 -390.37 301.37 0zm4501.81 -376.19c-5.18,-0.12 -10.55,-0.24 -15.8,-0.24 -148.84,0 -290.15,65.61 -386.21,179.26 -80.12,-112.59 -209.85,-179.5 -348.09,-179.5 -6.83,0 -13.77,0.16 -20.55,0.47 -2.91,-0.01 -5.96,-0.07 -8.95,-0.07 -122.4,0 -240.1,47.75 -327.82,133.06l0.03 -106.18 -392.39 0 0 1237.35 392.39 0 0 -687.19c-0.08,-2.26 -0.13,-4.58 -0.13,-6.86 0,-106.1 86.05,-192.16 192.16,-192.16 3.4,0 6.85,0.12 10.23,0.28 2.89,-0.14 5.87,-0.23 8.77,-0.23 98.57,0 178.5,79.94 178.5,178.5 0,5.12 -0.22,10.29 -0.65,15.39l-0.02 692.26 392.39 0 0 -687.19c-0.14,-2.96 -0.21,-6.01 -0.21,-9 0,-104.99 85.14,-190.13 190.13,-190.13 4.11,0 8.27,0.14 12.35,0.39 2.74,-0.11 5.5,-0.19 8.25,-0.19 98.57,0 178.5,79.94 178.5,178.5 0,5.12 -0.22,10.26 -0.65,15.36l-0.02 692.26 392.9 0 0 -809.06c0,-276.6 -176.98,-455.09 -455.09,-455.09l-0.01 0zm-7481.37 1256.66c380.26,1.01 668.99,-279.13 668.99,-645.73 0,-366.6 -288.74,-644.72 -668.99,-644.72 -380.26,0 -668.99,278.62 -668.99,646.75 0,368.13 285.7,646.75 668.99,646.75l0 -3.04zm0 -380.27c-0.64,0 -1.36,0 -2.01,0 -147.15,0 -266.48,-119.33 -266.48,-266.48 0,-147.15 119.33,-266.48 266.48,-266.48 147.15,0 266.48,119.33 266.48,266.48 0,0.33 0,0.69 0,1.01 0.03,1.79 0.07,3.76 0.07,5.6 0,143.53 -116.39,259.91 -259.91,259.91 -1.52,0 -3.11,-0.03 -4.6,-0.03l-0.03 -0.01zm1436.92 380.27c380.26,1.01 668.99,-279.13 668.99,-645.73 0,-366.6 -288.74,-644.72 -668.99,-644.72 -380.26,0 -668.99,278.62 -668.99,646.75 0,368.13 285.7,646.75 668.99,646.75l0 -3.04zm0 -380.27c-0.64,0 -1.36,0 -2.01,0 -147.15,0 -266.48,-119.33 -266.48,-266.48 0,-147.15 119.33,-266.48 266.48,-266.48 147.15,0 266.48,119.33 266.48,266.48 0,0.33 0,0.69 0,1.01 0.03,1.79 0.07,3.76 0.07,5.6 0,143.53 -116.39,259.91 -259.91,259.91 -1.52,0 -3.11,-0.03 -4.6,-0.03l-0.03 -0.01zm2307.35 441.05c5.87,0.14 11.89,0.23 17.83,0.23 224.39,0 433.37,-114.52 554.07,-303.6l-341.83 -208.34c-47.61,82.71 -135.88,133.73 -231.35,133.73 -147.43,0 -266.99,-119.56 -266.99,-266.99 0,-147.43 119.56,-266.99 266.99,-266.99 95.47,0 183.75,51.02 231.36,133.74l341.82 -211.86c-120.7,-189.12 -329.68,-303.63 -554.07,-303.63 -5.94,0 -11.96,0.08 -17.82,0.24 -382.79,0 -668.49,278.62 -668.49,646.75 0,368.13 285.7,646.75 668.49,646.75l-0.02 -0.02zm-5128.42 -1335.17c-1.88,0.03 -3.98,-0.03 -5.94,-0.03 -125.18,0 -245.89,46.76 -338.42,131.01l0 -611.37 -392.39 0 0 1745.04 392.39 0 0 -101.14c92.53,84.24 213.24,131 338.42,131 1.96,0 4.05,-0.06 5.96,-0.06 336.77,0 591.12,-278.62 591.12,-646.75 0,-368.13 -252.83,-647.25 -591.12,-647.25l-0.02 -0.48zm-77.37 913.73c-2.35,0.08 -4.79,0.11 -7.17,0.11 -143.53,0 -259.91,-116.39 -259.91,-259.91 0,-2.22 0.07,-4.47 0.09,-6.67 0,-146.59 118.88,-265.48 265.48,-265.48 146.59,0 265.48,118.88 265.48,265.48 0.08,2.85 0.14,5.8 0.14,8.67 0,142.4 -115.48,257.89 -257.89,257.89 -2.04,0 -4.19,-0.03 -6.21,-0.07l-0.01 -0.02zm6774.32 -861.06l0 101.14c-92.34,-84.28 -212.99,-131 -338.03,-131 -2.09,0 -4.29,0.06 -6.31,0.06 -336.77,0 -591.12,278.62 -591.12,647.25 0,368.63 252.83,646.75 591.12,646.75 2.02,-0.03 4.22,0.03 6.31,0.03 125.05,0 245.69,-46.73 338.05,-131l0 101.14 392.38 -0.03 0 -1234.33 -392.39 0zm-266.48 884.41c-2.21,0.03 -4.48,0.1 -6.72,0.1 -142.4,0 -257.89,-115.48 -257.89,-257.89 0,-2.86 0.07,-5.85 0.16,-8.69 -0.02,-146.59 118.87,-265.48 265.46,-265.48 146.59,0 265.48,118.88 265.48,265.48 0.02,2.15 0.08,4.47 0.08,6.66 0,143.53 -116.39,259.91 -259.91,259.91 -2.19,0 -4.51,-0.07 -6.67,-0.09l0.01 -0.01zm2800.79 -1947.44l463.18 0 0 -1683.86 -463.18 0 0 1683.86zm-1238.87 -661.41l162.82 -505.67 160.29 505.67 -323.12 0zm533.98 661.41l505.67 0 -601.74 -1683.86 -546.12 0 -601.74 1683.86 497.57 0 75.35 -232.1 594.16 0 76.86 232.1zm-8658.46 -894.01c93.31,6.12 165.87,83.61 165.87,177.11 0,98 -79.49,177.49 -177.49,177.49 -98.01,0 -177.49,-79.49 -177.49,-177.49 0,-0.03 0,-0.11 0,-0.13 0.07,-97.96 79.53,-177.36 177.49,-177.36 3.88,0 7.78,0.15 11.63,0.39l-0.02 -0.02zm246.76 868.23l-363.06 0c-58.15,0 -97.09,-31.85 -97.09,-77.87 2.13,-36.05 23.35,-68.26 55.63,-84.45 51.68,10.58 104.88,16.42 157.79,16.72 334.24,0 591.12,-235.13 591.12,-547.64 -0.02,-0.49 -0.02,-1.01 -0.02,-1.47 0,-106.61 -32.05,-210.81 -92.01,-298.91 18.33,-37.31 56.36,-60.98 97.96,-60.98 2.73,0 5.48,0.11 8.2,0.31l87.47 -0.02 0 -361.55 -106.7 0c-171.93,0 -300.36,86.97 -339.3,222.49 -78.48,-30.27 -162.09,-46.01 -246.29,-46.01 -0.08,0 -0.42,0 -0.5,0 -339.3,0 -593.64,235.13 -593.64,547.64 0.06,2 -0.01,4.34 -0.01,6.41 0,144.02 58.67,282.03 162.35,381.95 -108.95,72.43 -174.47,194.65 -174.47,325.5 0,1.38 0,2.81 0,4.2 0,212.89 164.84,353.97 411.61,353.97l366.12 -0.02c4.9,-0.49 9.87,-0.74 14.8,-0.74 71.59,0 132.81,51.58 144.99,122.1l404.53 -111.75c-50.56,-244.74 -235.13,-387.33 -489.48,-387.33l0 -2.54zm0 0l0 0 0 0zm6157.45 -1719.25l-395.94 0 0 1328.38c0,281.66 164.84,446.5 441.44,446.5 0.46,0.01 1.22,0.01 1.7,0.01 85.37,0 170.34,-14.11 251.14,-41.49l-43.99 -330.2c-40.85,11.72 -83.18,17.71 -125.69,17.71 -0.06,0 -0.17,0 -0.23,0 -97.09,0 -130.96,-46.52 -130.96,-136.02l2.52 -1284.89zm-5170.4 0l-395.43 0 0 1328.38c0,281.66 164.84,446.5 441.95,446.5 0.67,0.01 1.53,0.01 2.19,0.01 85.22,0 169.97,-14.06 250.63,-41.43l-43.49 -330.2c-40.85,11.65 -83.39,17.66 -125.92,17.66 -97.09,0 -131.47,-46.52 -131.47,-136.02l1.52 -1284.9zm3931.03 1394.11c-2.21,0.03 -4.48,0.1 -6.72,0.1 -142.4,0 -257.89,-115.48 -257.89,-257.89 0,-2.86 0.07,-5.85 0.16,-8.69 -0.02,-146.59 118.87,-265.48 265.46,-265.48 146.59,0 265.48,118.88 265.48,265.48 0.02,2.15 0.08,4.47 0.08,6.66 0,143.53 -116.39,259.91 -259.91,259.91 -2.19,0 -4.51,-0.07 -6.67,-0.09l0.01 -0.01zm266.48 -884.41l0 101.14c-92.34,-84.28 -212.99,-131 -338.03,-131 -2.09,0 -4.29,0.06 -6.31,0.06 -336.77,0 -591.12,278.62 -591.12,647.25 0,368.63 252.83,646.75 591.12,646.75 2.02,-0.03 4.22,0.03 6.31,0.03 125.05,0 245.69,-46.73 338.05,-131l0 101.14 392.38 -0.03 0 -1234.33 -392.39 0zm-1722.79 884.41c-2.35,0.08 -4.79,0.11 -7.17,0.11 -143.53,0 -259.91,-116.39 -259.91,-259.91 0,-2.22 0.07,-4.47 0.09,-6.67 0,-146.59 118.88,-265.48 265.48,-265.48 146.59,0 265.48,118.88 265.48,265.48 0.08,2.85 0.14,5.8 0.14,8.67 0,142.4 -115.48,257.89 -257.89,257.89 -2.04,0 -4.19,-0.03 -6.21,-0.07l-0.01 -0.02zm77.37 -913.73c-1.88,0.03 -3.98,-0.03 -5.94,-0.03 -125.18,0 -245.89,46.76 -338.42,131.01l0 -611.37 -392.39 0 0 1745.04 392.39 0 0 -101.14c92.53,84.24 213.24,131 338.42,131 1.96,0 4.05,-0.06 5.96,-0.06 336.77,0 591.12,-278.62 591.12,-646.75 0,-368.13 -252.83,-647.25 -591.12,-647.25l-0.02 -0.48zm-1553.9 913.73c-2.14,0.03 -4.46,0.1 -6.65,0.1 -143.53,0 -259.91,-116.39 -259.91,-259.91 0,-2.19 0.07,-4.51 0.09,-6.67 -0.16,-3.83 -0.26,-7.72 -0.26,-11.58 0,-146.59 118.88,-265.48 265.48,-265.48 146.59,0 265.48,118.88 265.48,265.48 0,3.85 -0.1,7.75 -0.26,11.57 0.05,2.5 0.12,5.12 0.12,7.65 0,142.96 -115.94,258.9 -258.9,258.9 -1.71,0 -3.51,-0.03 -5.18,-0.07l0.01 0.01zm0 380.26c380.26,0 668.99,-278.62 668.99,-646.75 0,-368.13 -288.74,-647.24 -668.99,-647.24 -380.26,0 -668.49,278.12 -668.49,647.25 0,369.13 285.7,646.75 668.49,646.75l0 -0.01zm0 0l0 0 0 0zm8091.73 1938.23c-172.32,0 -299.17,-129.25 -299.17,-301.57 0,-172.33 126.85,-301.58 299.17,-301.58 172.33,0 299.18,129.25 299.18,301.58 0,172.32 -126.85,301.57 -299.18,301.57zm69.41 -940.62c-148.39,0 -275.24,55.05 -368.58,150.79l0 -122.07 -349.44 0 0 1675.4 349.44 0 0 -576.82c93.34,95.74 220.19,150.79 368.58,150.79 337.47,0 588.79,-275.24 588.79,-639.04 0,-363.81 -251.31,-639.05 -588.79,-639.05zm-5897.32 377.35l0 -358.51 -303.4 0 0 -297.84 -392.39 0 0 1112.46c0,261.93 135.52,450.55 455.09,450.55 5.07,0.13 10.37,0.24 15.5,0.24 78.93,0 156.86,-19.24 226.74,-55.88l-0.02 -366.09c-48.48,25.62 -102.41,39.71 -157.25,40.97 -101.14,0 -145.63,-50.56 -145.63,-135.52l-0.01 -390.37 301.37 0zm4501.81 -376.19c-5.18,-0.12 -10.55,-0.24 -15.8,-0.24 -148.84,0 -290.15,65.61 -386.21,179.26 -80.12,-112.59 -209.85,-179.5 -348.09,-179.5 -6.83,0 -13.77,0.16 -20.55,0.47 -2.91,-0.01 -5.96,-0.07 -8.95,-0.07 -122.4,0 -240.1,47.75 -327.82,133.06l0.03 -106.18 -392.39 0 0 1237.35 392.39 0 0 -687.19c-0.08,-2.26 -0.13,-4.58 -0.13,-6.86 0,-106.1 86.05,-192.16 192.16,-192.16 3.4,0 6.85,0.12 10.23,0.28 2.89,-0.14 5.87,-0.23 8.77,-0.23 98.57,0 178.5,79.94 178.5,178.5 0,5.12 -0.22,10.29 -0.65,15.39l-0.02 692.26 392.39 0 0 -687.19c-0.14,-2.96 -0.21,-6.01 -0.21,-9 0,-104.99 85.14,-190.13 190.13,-190.13 4.11,0 8.27,0.14 12.35,0.39 2.74,-0.11 5.5,-0.19 8.25,-0.19 98.57,0 178.5,79.94 178.5,178.5 0,5.12 -0.22,10.26 -0.65,15.36l-0.02 692.26 392.9 0 0 -809.06c0,-276.6 -176.98,-455.09 -455.09,-455.09l-0.01 0zm-7481.37 1256.66c380.26,1.01 668.99,-279.13 668.99,-645.73 0,-366.6 -288.74,-644.72 -668.99,-644.72 -380.26,0 -668.99,278.62 -668.99,646.75 0,368.13 285.7,646.75 668.99,646.75l0 -3.04zm0 -380.27c-0.64,0 -1.36,0 -2.01,0 -147.15,0 -266.48,-119.33 -266.48,-266.48 0,-147.15 119.33,-266.48 266.48,-266.48 147.15,0 266.48,119.33 266.48,266.48 0,0.33 0,0.69 0,1.01 0.03,1.79 0.07,3.76 0.07,5.6 0,143.53 -116.39,259.91 -259.91,259.91 -1.52,0 -3.11,-0.03 -4.6,-0.03l-0.03 -0.01zm1436.92 380.27c380.26,1.01 668.99,-279.13 668.99,-645.73 0,-366.6 -288.74,-644.72 -668.99,-644.72 -380.26,0 -668.99,278.62 -668.99,646.75 0,368.13 285.7,646.75 668.99,646.75l0 -3.04zm0 -380.27c-0.64,0 -1.36,0 -2.01,0 -147.15,0 -266.48,-119.33 -266.48,-266.48 0,-147.15 119.33,-266.48 266.48,-266.48 147.15,0 266.48,119.33 266.48,266.48 0,0.33 0,0.69 0,1.01 0.03,1.79 0.07,3.76 0.07,5.6 0,143.53 -116.39,259.91 -259.91,259.91 -1.52,0 -3.11,-0.03 -4.6,-0.03l-0.03 -0.01zm2307.35 441.05c5.87,0.14 11.89,0.23 17.83,0.23 224.39,0 433.37,-114.52 554.07,-303.6l-341.83 -208.34c-47.61,82.71 -135.88,133.73 -231.35,133.73 -147.43,0 -266.99,-119.56 -266.99,-266.99 0,-147.43 119.56,-266.99 266.99,-266.99 95.47,0 183.75,51.02 231.36,133.74l341.82 -211.86c-120.7,-189.12 -329.68,-303.63 -554.07,-303.63 -5.94,0 -11.96,0.08 -17.82,0.24 -382.79,0 -668.49,278.62 -668.49,646.75 0,368.13 285.7,646.75 668.49,646.75l-0.02 -0.02zm-5128.42 -1335.17c-1.88,0.03 -3.98,-0.03 -5.94,-0.03 -125.18,0 -245.89,46.76 -338.42,131.01l0 -611.37 -392.39 0 0 1745.04 392.39 0 0 -101.14c92.53,84.24 213.24,131 338.42,131 1.96,0 4.05,-0.06 5.96,-0.06 336.77,0 591.12,-278.62 591.12,-646.75 0,-368.13 -252.83,-647.25 -591.12,-647.25l-0.02 -0.48zm-77.37 913.73c-2.35,0.08 -4.79,0.11 -7.17,0.11 -143.53,0 -259.91,-116.39 -259.91,-259.91 0,-2.22 0.07,-4.47 0.09,-6.67 0,-146.59 118.88,-265.48 265.48,-265.48 146.59,0 265.48,118.88 265.48,265.48 0.08,2.85 0.14,5.8 0.14,8.67 0,142.4 -115.48,257.89 -257.89,257.89 -2.04,0 -4.19,-0.03 -6.21,-0.07l-0.01 -0.02zm6774.32 -861.06l0 101.14c-92.34,-84.28 -212.99,-131 -338.03,-131 -2.09,0 -4.29,0.06 -6.31,0.06 -336.77,0 -591.12,278.62 -591.12,647.25 0,368.63 252.83,646.75 591.12,646.75 2.02,-0.03 4.22,0.03 6.31,0.03 125.05,0 245.69,-46.73 338.05,-131l0 101.14 392.38 -0.03 0 -1234.33 -392.39 0zm-266.48 884.41c-2.21,0.03 -4.48,0.1 -6.72,0.1 -142.4,0 -257.89,-115.48 -257.89,-257.89 0,-2.86 0.07,-5.85 0.16,-8.69 -0.02,-146.59 118.87,-265.48 265.46,-265.48 146.59,0 265.48,118.88 265.48,265.48 0.02,2.15 0.08,4.47 0.08,6.66 0,143.53 -116.39,259.91 -259.91,259.91 -2.19,0 -4.51,-0.07 -6.67,-0.09l0.01 -0.01z"/>
  </g>
 </g>
</svg>
