<?xml version="1.0" encoding="UTF-8"?>
<!DOCTYPE svg PUBLIC "-//W3C//DTD SVG 1.1//EN" "http://www.w3.org/Graphics/SVG/1.1/DTD/svg11.dtd">
<!-- Creator: CorelDRAW 2020 (64-Bit) -->
<svg xmlns="http://www.w3.org/2000/svg" xml:space="preserve" width="209.983mm" height="60.8012mm" version="1.1" style="shape-rendering:geometricPrecision; text-rendering:geometricPrecision; image-rendering:optimizeQuality; fill-rule:evenodd; clip-rule:evenodd"
viewBox="0 0 18859.49 5460.81"
 xmlns:xlink="http://www.w3.org/1999/xlink"
 xmlns:xodm="http://www.corel.com/coreldraw/odm/2003">
 <defs>
  <style type="text/css">
   <![CDATA[
    .fil3 {fill:#1E224E;fill-rule:nonzero}
    .fil0 {fill:#8CADC6;fill-rule:nonzero}
    .fil2 {fill:#D5522B;fill-rule:nonzero}
    .fil1 {fill:white;fill-rule:nonzero}
   ]]>
  </style>
 </defs>
 <g id="Capa_x0020_1">
  <metadata id="CorelCorpID_0Corel-Layer"/>
  <path class="fil0" d="M1831.81 522.17c-690.73,181.56 -1172.58,806.44 -1172.58,1520.78 0,713.36 480.32,1337.47 1169.89,1520.04 681.53,-191.2 1152.82,-812.9 1152.82,-1520.78 0,-706.94 -469.75,-1328.06 -1150.07,-1520.12l-0.06 0.08z"/>
  <g>
   <path class="fil1" d="M1798.18 2349.49c169.78,0.01 307.45,-137.67 307.45,-307.43 0,-169.77 -137.68,-307.44 -307.44,-307.44 -169.77,0 -307.44,137.68 -307.44,307.44 0,169.77 137.68,307.44 307.44,307.44l-0.01 -0.01zm0 0l0 0 0 0z"/>
  </g>
  <path class="fil2" d="M1016.83 4433.82c-62.85,-64.22 -98.1,-150.59 -98.1,-240.49 0,-89.9 35.25,-176.27 98.12,-240.49l0 -3.25 0 0 156.71 -158.33c313.36,191.66 674.54,293.36 1042.06,293.36 0.48,0 1.22,0 1.71,0 1119.48,-14.81 2019.62,-926.95 2019.62,-2046.73 0,-377.1 -104.71,-747.45 -301.38,-1068.83l299.31 -302.57 -647.87 -654.57 -297.15 299.85c-319.65,-203.49 -691.24,-311.78 -1070.37,-311.78 -0.48,0 -1.71,0 -2.19,0 -1119.72,14.09 -2020.37,926.23 -2020.37,2046.23 0,388.99 111.17,770.71 320.03,1098.75l-148.64 150.16c-235.65,237.94 -368.32,559.76 -368.32,894.77 0,695.77 559.85,1262.46 1255.47,1270.84l2486.08 0.07 0 -927.22 -2486.13 0c-0.1,0 -0.34,0 -0.47,0 -89.51,0 -175.35,-36.01 -238.11,-99.78l-0.01 0.01zm1431.49 -3858.52c773.09,110.01 1347.82,772.07 1347.82,1553.06 0,866.2 -702.46,1568.66 -1568.68,1568.66 -866.21,0 -1568.68,-702.46 -1568.68,-1568.66 0,-28.53 0.76,-57.45 2.3,-85.8 0.03,-2.6 0.03,-5.46 0.03,-8.13 0,-858.18 693.25,-1555.43 1551.43,-1560l235.77 100.87z"/>
  <path class="fil3" d="M15852.29 1871.24l496.68 0 0 -1805.63 -496.68 0 0 1805.63zm-1328.47 -709.24l174.6 -542.24 171.89 542.24 -346.49 0zm572.59 709.24l542.24 0 -645.25 -1805.63 -585.62 0 -645.25 1805.63 533.55 0 80.8 -248.88 637.12 0 82.41 248.88z"/>
  <g>
   <path class="fil3" d="M5811.78 912.58c100.05,6.57 177.87,89.66 177.87,189.92 0,105.09 -85.23,190.33 -190.33,190.33 -105.1,0 -190.33,-85.23 -190.33,-190.33 0,-0.03 0,-0.12 0,-0.14 0.07,-105.05 85.28,-190.18 190.33,-190.18 4.16,0 8.34,0.16 12.48,0.42l-0.02 -0.02zm264.61 931.01l-389.32 0c-62.36,0 -104.11,-34.16 -104.11,-83.5 2.28,-38.66 25.04,-73.2 59.65,-90.56 55.42,11.34 112.47,17.61 169.2,17.93 358.41,0 633.87,-252.14 633.87,-587.24 -0.02,-0.53 -0.02,-1.09 -0.02,-1.57 0,-114.32 -34.37,-226.05 -98.66,-320.53 19.66,-40.01 60.44,-65.39 105.05,-65.39 2.93,0 5.87,0.12 8.79,0.33l93.79 -0.02 0 -387.7 -114.41 0c-184.36,0 -322.08,93.26 -363.84,238.58 -84.16,-32.46 -173.82,-49.33 -264.1,-49.33 -0.09,0 -0.45,0 -0.54,0 -363.84,0 -636.58,252.14 -636.58,587.24 0.06,2.15 -0.01,4.65 -0.01,6.87 0,154.44 62.91,302.42 174.1,409.57 -116.83,77.67 -187.09,208.73 -187.09,349.04 0,1.48 0,3.02 0,4.5 0,228.28 176.76,379.56 441.37,379.56l392.6 -0.02c5.25,-0.52 10.59,-0.79 15.87,-0.79 76.76,0 142.41,55.31 155.48,130.93l433.78 -119.83c-54.22,-262.44 -252.14,-415.35 -524.88,-415.35l0 -2.72zm0 0l0 0 0 0z"/>
  </g>
  <path class="fil3" d="M12679.14 0l-424.57 0 0 1424.44c0,302.03 176.76,478.79 473.37,478.79 0.49,0.01 1.31,0.01 1.82,0.01 91.54,0 182.66,-15.13 269.3,-44.49l-47.17 -354.07c-43.8,12.57 -89.19,19 -134.78,19 -0.06,0 -0.18,0 -0.24,0 -104.11,0 -140.43,-49.88 -140.43,-145.86l2.7 -1377.81z"/>
  <path class="fil3" d="M7134.82 0l-424.02 0 0 1424.44c0,302.03 176.76,478.79 473.91,478.79 0.72,0.01 1.64,0.01 2.35,0.01 91.39,0 182.26,-15.08 268.76,-44.42l-46.63 -354.07c-43.8,12.49 -89.42,18.93 -135.03,18.93 -104.11,0 -140.98,-49.88 -140.98,-145.86l1.63 -1377.82z"/>
  <g>
   <path class="fil3" d="M11350.14 1494.93c-2.37,0.04 -4.81,0.11 -7.2,0.11 -152.7,0 -276.54,-123.84 -276.54,-276.54 0,-3.07 0.07,-6.28 0.17,-9.31 -0.02,-157.19 127.46,-284.68 284.66,-284.68 157.19,0 284.68,127.48 284.68,284.68 0.02,2.31 0.09,4.8 0.09,7.14 0,153.91 -124.81,278.71 -278.71,278.71 -2.34,0 -4.83,-0.07 -7.15,-0.1l0.01 -0.01zm285.75 -948.37l0 108.45c-99.02,-90.37 -228.39,-140.48 -362.48,-140.48 -2.24,0 -4.6,0.06 -6.76,0.06 -361.12,0 -633.87,298.77 -633.87,694.06 0,395.29 271.11,693.52 633.87,693.52 2.16,-0.04 4.53,0.03 6.76,0.03 134.09,0 263.46,-50.11 362.5,-140.47l0 108.45 420.75 -0.03 0 -1323.59 -420.77 0zm-1847.38 948.37c-2.51,0.08 -5.14,0.12 -7.69,0.12 -153.91,0 -278.71,-124.81 -278.71,-278.71 0,-2.38 0.07,-4.8 0.1,-7.15 0,-157.19 127.48,-284.68 284.68,-284.68 157.19,0 284.68,127.48 284.68,284.68 0.08,3.05 0.15,6.22 0.15,9.3 0,152.7 -123.84,276.54 -276.54,276.54 -2.19,0 -4.49,-0.04 -6.66,-0.07l-0.01 -0.02zm82.96 -979.81c-2.02,0.04 -4.27,-0.03 -6.37,-0.03 -134.24,0 -263.67,50.14 -362.89,140.49l0 -655.58 -420.77 0 0 1871.24 420.77 0 0 -108.45c99.23,90.34 228.66,140.48 362.89,140.48 2.1,0 4.35,-0.06 6.39,-0.06 361.12,0 633.87,-298.77 633.87,-693.52 0,-394.75 -271.11,-694.06 -633.87,-694.06l-0.02 -0.51zm-1666.28 979.81c-2.3,0.04 -4.79,0.11 -7.13,0.11 -153.91,0 -278.71,-124.81 -278.71,-278.71 0,-2.34 0.07,-4.83 0.1,-7.15 -0.17,-4.1 -0.28,-8.28 -0.28,-12.41 0,-157.19 127.48,-284.68 284.68,-284.68 157.19,0 284.68,127.48 284.68,284.68 0,4.13 -0.11,8.31 -0.28,12.4 0.05,2.68 0.13,5.49 0.13,8.2 0,153.3 -124.32,277.62 -277.62,277.62 -1.83,0 -3.76,-0.04 -5.56,-0.07l0.01 0.01zm0 407.76c407.76,0 717.37,-298.77 717.37,-693.52 0,-394.75 -309.62,-694.05 -717.37,-694.05 -407.76,0 -716.83,298.23 -716.83,694.06 0,395.83 306.37,693.52 716.83,693.52l0 -0.01zm0 0l0 0 0 0z"/>
  </g>
  <g>
   <path class="fil3" d="M18391.01 2739.9l-267.32 777.02 -267.86 -777.02 -480.42 0 514.03 1296.48 -23.32 54.22c-19.82,54.69 -71.8,91.17 -130.01,91.17 -1.65,0 -3.38,-0.04 -5.01,-0.08 -55.71,-1.39 -109.18,-22.57 -150.74,-59.65l-162.67 330.22c109.37,85.49 243.54,133.86 382.32,137.75 202.67,-4.66 381.41,-134.25 448.91,-325.37l610.56 -1522.58 -468.47 -2.15zm-1099.1 384.44l0 -384.44 -325.34 0 0 -319.38 -420.77 0 0 1192.91c0,280.88 145.32,483.13 488.01,483.13 5.43,0.13 11.12,0.26 16.62,0.26 84.64,0 168.2,-20.63 243.14,-59.92l-0.02 -392.56c-51.98,27.47 -109.82,42.58 -168.63,43.93 -108.45,0 -156.16,-54.22 -156.16,-145.32l-0.01 -418.61 323.17 0zm-1389.2 942.39l418.61 0 0 -1326.83 -420.77 0 2.16 1326.83zm210.39 -1467.82c140.93,-0.58 254.85,-115.01 254.85,-255.93 0,-141.32 -114.61,-255.93 -255.93,-255.93 -141.32,0 -255.93,114.61 -255.93,255.93 0,0.34 0,0.75 0,1.1 -0.03,1.78 -0.05,3.7 -0.05,5.52 0,137.73 111.69,249.42 249.42,249.42 2.52,0 5.15,-0.06 7.64,-0.13l0.01 0.01zm-957.04 112.24c-4.03,-0.08 -8.24,-0.14 -12.3,-0.14 -136.98,0 -268.65,53.09 -367.24,148.13l-0.02 -119.25 -420.77 0 0 1326.83 420.77 0 0 -716.29c-0.16,-3.57 -0.27,-7.28 -0.27,-10.89 0,-123.36 100.04,-223.4 223.4,-223.4 5.32,0 10.69,0.22 15.99,0.57 3.65,-0.19 7.41,-0.29 11.09,-0.29 116.47,0 210.93,94.46 210.93,210.93 0,6.05 -0.26,12.15 -0.77,18.18l-0.01 721.18 420.77 0 0 -861.61c0,-298.77 -200.08,-496.14 -498.86,-496.14l-2.71 2.17zm-1684.17 1384.85c379.56,0 633.87,-223.4 633.87,-561.21l-0.01 -794.9 -420.77 0 0 735.26c0,117.66 -95.43,213.08 -213.09,213.08 -117.67,0 -213.09,-95.43 -213.09,-213.09l-0.01 -735.26 -420.77 0 0 794.91c0,337.81 252.14,561.21 633.87,561.21l0 -0.01zm-1355.58 -1384.85c-5.55,-0.13 -11.31,-0.26 -16.94,-0.26 -159.61,0 -311.13,70.35 -414.14,192.22 -85.92,-120.73 -225.03,-192.48 -373.27,-192.48 -7.33,0 -14.77,0.17 -22.04,0.5 -3.13,-0.01 -6.39,-0.07 -9.59,-0.07 -131.25,0 -257.46,51.2 -351.53,142.69l0.03 -113.86 -420.77 0 0 1326.83 420.77 0 0 -736.89c-0.08,-2.42 -0.13,-4.91 -0.13,-7.36 0,-113.78 92.28,-206.05 206.05,-206.05 3.65,0 7.35,0.13 10.97,0.31 3.1,-0.15 6.3,-0.24 9.4,-0.24 105.69,0 191.41,85.72 191.41,191.41 0,5.49 -0.23,11.03 -0.7,16.5l-0.02 742.32 420.77 0 0 -736.89c-0.15,-3.18 -0.22,-6.44 -0.22,-9.66 0,-112.58 91.3,-203.88 203.88,-203.88 4.41,0 8.86,0.15 13.24,0.42 2.94,-0.12 5.9,-0.21 8.85,-0.21 105.69,0 191.41,85.72 191.41,191.41 0,5.49 -0.23,11 -0.7,16.47l-0.02 742.32 421.32 0 0 -867.57c0,-296.6 -189.78,-488.01 -488.01,-488.01l-0.01 0zm-2352.74 0c-5.56,-0.13 -11.32,-0.26 -16.95,-0.26 -159.61,0 -311.13,70.35 -414.13,192.22 -85.54,-120.73 -224.45,-192.5 -372.43,-192.5 -7.41,0 -14.94,0.22 -22.29,0.56 -3.44,-0.05 -7,-0.12 -10.49,-0.12 -130.99,0 -256.9,51.23 -350.63,142.69l-0.02 -113.85 -420.77 0 0 1326.83 420.77 0 0 -736.89c-0.09,-2.63 -0.14,-5.29 -0.14,-7.92 0,-113.48 92.02,-205.5 205.5,-205.5 3.84,0 7.72,0.13 11.54,0.32 3.07,-0.15 6.28,-0.24 9.39,-0.24 105.69,0 191.41,85.72 191.41,191.41 0,5.49 -0.23,11.03 -0.7,16.5l-0.02 742.32 420.77 0 0 -736.89c-0.15,-3.18 -0.22,-6.44 -0.22,-9.66 0,-112.58 91.29,-203.88 203.87,-203.88 4.41,0 8.86,0.15 13.24,0.42 3.08,-0.14 6.29,-0.23 9.39,-0.23 105.69,0 191.41,85.72 191.41,191.41 0,5.49 -0.23,11.03 -0.7,16.5l-0.02 742.32 420.77 0 0 -867.57c0,-296.6 -189.78,-488.01 -488.01,-488.01l-0.54 0zm-2509.99 976.01c-0.69,0 -1.45,0 -2.16,0 -157.79,0 -285.75,-127.96 -285.75,-285.75 0,-157.79 127.96,-285.75 285.75,-285.75 157.79,0 285.75,127.96 285.75,285.75 0,0.35 0,0.74 0,1.08 0.04,1.92 0.07,4.03 0.07,6.01 0,153.91 -124.81,278.71 -278.71,278.71 -1.63,0 -3.33,-0.04 -4.93,-0.04l-0.03 -0.01zm0 407.77c407.76,1.08 717.37,-299.31 717.37,-692.43 0,-393.12 -309.62,-691.34 -717.37,-691.34 -407.76,0 -717.37,298.77 -717.37,693.52 0,394.75 306.37,693.52 717.37,693.52l0 -3.26zm-1381.06 3.25c6.3,0.15 12.75,0.24 19.12,0.24 240.62,0 464.71,-122.8 594.14,-325.56l-366.55 -223.4c-51.05,88.69 -145.71,143.4 -248.08,143.4 -158.09,0 -286.3,-128.21 -286.3,-286.3 0,-158.09 128.21,-286.3 286.3,-286.3 102.38,0 197.03,54.71 248.09,143.42l366.54 -227.19c-129.43,-202.8 -353.52,-325.59 -594.14,-325.59 -6.37,0 -12.83,0.09 -19.1,0.26 -410.47,0 -716.83,298.77 -716.83,693.52 0,394.75 306.37,693.52 716.83,693.52l-0.02 -0.02zm0 0l0 0 0 0z"/>
  </g>
 </g>
</svg>
